<?xml version="1.0" standalone="no"?>
<!DOCTYPE svg PUBLIC "-//W3C//DTD SVG 20010904//EN"
 "http://www.w3.org/TR/2001/REC-SVG-20010904/DTD/svg10.dtd">
<svg version="1.0" xmlns="http://www.w3.org/2000/svg"
 width="1280.000000pt" height="1008.000000pt" viewBox="0 0 1280.000000 1008.000000"
 preserveAspectRatio="xMidYMid meet">
<metadata>
Created by potrace 1.15, written by Peter Selinger 2001-2017
</metadata>
<g transform="translate(0.000000,1008.000000) scale(0.100000,-0.100000)"
fill="#000000" stroke="none">
<path d="M6805 10005 c-186 -35 -543 -67 -910 -80 -355 -12 -640 -27 -647 -33
-14 -13 95 -964 165 -1438 l32 -222 -44 -6 c-24 -3 -452 -6 -951 -6 -1050 0
-965 8 -1070 -100 -52 -52 -131 -170 -382 -571 -175 -278 -328 -527 -340 -555
l-23 -49 0 -3066 0 -3065 30 -59 c23 -46 40 -64 74 -82 l44 -23 3718 0 3718 0
34 30 c64 56 106 193 121 395 4 44 11 184 16 310 9 217 118 2618 140 3090 102
2178 109 2380 94 2456 -30 145 -9 124 -627 623 -608 492 -668 537 -772 590
-161 82 -86 76 -1019 76 -457 0 -854 3 -881 6 l-51 6 -67 272 c-141 569 -222
979 -273 1374 -21 162 -8 149 -129 127z m915 -2445 c-8 -5 -24 -9 -35 -9 -16
1 -16 2 5 9 35 11 48 11 30 0z"/>
</g>
</svg>
